<svg version="1.1" viewBox="0.0 0.0 960.0 540.0" fill="none" stroke="none" stroke-linecap="square" stroke-miterlimit="10" xmlns:xlink="http://www.w3.org/1999/xlink" xmlns="http://www.w3.org/2000/svg"><clipPath id="g24577cdd49d_0_297.0"><path d="m0 0l960.0 0l0 540.0l-960.0 0l0 -540.0z" clip-rule="nonzero"/></clipPath><g clip-path="url(#g24577cdd49d_0_297.0)"><path fill="#131732" d="m0 0l960.0 0l0 540.0l-960.0 0z" fill-rule="evenodd"/><path fill="#131732" d="m44.015747 176.08522l0 0c0 -26.579926 21.547287 -48.127213 48.127213 -48.127213l782.64325 0c12.764099 0 25.005432 5.070526 34.031067 14.09613c9.025574 9.025604 14.09613 21.266953 14.09613 34.031082l0 250.23375c0 26.579926 -21.547302 48.127228 -48.127197 48.127228l-782.64325 0c-26.579926 0 -48.127213 -21.547302 -48.127213 -48.127228z" fill-rule="evenodd"/><path fill="#ff79c6" d="m180.4672 383.65796l0 0c0 -9.76236 7.913971 -17.67633 17.67633 -17.67633l545.81274 0c4.6880493 0 9.184082 1.8623352 12.499023 5.1772766c3.3149414 3.314972 5.177307 7.8110046 5.177307 12.499054l0 79.32449c0 9.76236 -7.9140015 17.67633 -17.67633 17.67633l-545.81274 0c-9.76236 0 -17.67633 -7.913971 -17.67633 -17.67633z" fill-rule="evenodd"/><path fill="#131732" d="m413.35342 432.19885l6.71875 -16.9375l3.40625 0l6.65625 16.9375l-3.984375 0l-5.09375 -14.0625l1.375 0l-5.171875 14.0625l-3.90625 0zm3.8125 -3.078125l0 -3.0625l9.25 0l0 3.0625l-9.25 0zm22.324066 3.078125l0 -6.640625q0 -0.921875 -0.5625 -1.484375q-0.5625 -0.5625 -1.421875 -0.5625q-0.609375 0 -1.0625 0.25q-0.453125 0.25 -0.71875 0.71875q-0.265625 0.46875 -0.265625 1.078125l-1.421875 -0.703125q0 -1.375 0.59375 -2.40625q0.609375 -1.03125 1.671875 -1.59375q1.078125 -0.5625 2.421875 -0.5625q1.296875 0 2.28125 0.609375q1.0 0.609375 1.578125 1.625q0.578125 1.015625 0.578125 2.203125l0 7.46875l-3.671875 0zm-7.703125 0l0 -11.65625l3.671875 0l0 11.65625l-3.671875 0zm13.727966 0l0 -11.65625l3.671875 0l0 11.65625l-3.671875 0zm1.84375 -13.265625q-0.859375 0 -1.421875 -0.59375q-0.5625 -0.59375 -0.5625 -1.421875q0 -0.875 0.5625 -1.4375q0.5625 -0.578125 1.421875 -0.578125q0.875 0 1.421875 0.578125q0.546875 0.5625 0.546875 1.4375q0 0.828125 -0.546875 1.421875q-0.546875 0.59375 -1.421875 0.59375zm4.420227 13.265625l0 -11.65625l3.671875 0l0 11.65625l-3.671875 0zm7.46875 0l0 -6.8125q0 -0.890625 -0.546875 -1.375q-0.53125 -0.5 -1.328125 -0.5q-0.546875 0 -0.984375 0.234375q-0.4375 0.21875 -0.6875 0.625q-0.25 0.40625 -0.25 1.015625l-1.421875 -0.625q0 -1.390625 0.59375 -2.390625q0.609375 -1.0 1.640625 -1.53125q1.03125 -0.546875 2.328125 -0.546875q1.234375 0 2.203125 0.5625q0.96875 0.546875 1.546875 1.53125q0.578125 0.984375 0.578125 2.34375l0 7.46875l-3.671875 0zm7.453125 0l0 -6.8125q0 -0.890625 -0.546875 -1.375q-0.53125 -0.5 -1.3125 -0.5q-0.5625 0 -1.0 0.234375q-0.421875 0.21875 -0.671875 0.625q-0.25 0.40625 -0.25 1.015625l-2.125 -0.296875q0.0625 -1.484375 0.71875 -2.546875q0.65625 -1.078125 1.75 -1.65625q1.09375 -0.59375 2.453125 -0.59375q1.34375 0 2.390625 0.5625q1.046875 0.5625 1.65625 1.609375q0.609375 1.046875 0.609375 2.515625l0 7.21875l-3.671875 0zm10.90506 0.234375q-1.609375 0 -2.875 -0.78125q-1.25 -0.796875 -1.984375 -2.15625q-0.734375 -1.375 -0.734375 -3.125q0 -1.75 0.734375 -3.109375q0.734375 -1.375 1.984375 -2.171875q1.265625 -0.796875 2.875 -0.796875q1.171875 0 2.109375 0.46875q0.953125 0.453125 1.546875 1.25q0.609375 0.796875 0.6875 1.828125l0 5.046875q-0.078125 1.03125 -0.671875 1.84375q-0.578125 0.796875 -1.546875 1.25q-0.953125 0.453125 -2.125 0.453125zm0.734375 -3.3125q1.1875 0 1.90625 -0.765625q0.71875 -0.78125 0.71875 -1.984375q0 -0.8125 -0.328125 -1.4375q-0.328125 -0.625 -0.921875 -0.96875q-0.578125 -0.359375 -1.34375 -0.359375q-0.765625 0 -1.359375 0.359375q-0.59375 0.34375 -0.9375 0.96875q-0.34375 0.625 -0.34375 1.4375q0 0.78125 0.328125 1.40625q0.34375 0.625 0.9375 0.984375q0.609375 0.359375 1.34375 0.359375zm2.484375 3.078125l0 -3.140625l0.546875 -2.828125l-0.546875 -2.84375l0 -2.84375l3.59375 0l0 11.65625l-3.59375 0zm7.8424377 0l0 -16.484375l3.671875 0l0 16.484375l-3.671875 0zm-2.640625 -8.546875l0 -3.109375l8.953125 0l0 3.109375l-8.953125 0zm10.560364 8.546875l0 -11.65625l3.671875 0l0 11.65625l-3.671875 0zm1.84375 -13.265625q-0.859375 0 -1.421875 -0.59375q-0.5625 -0.59375 -0.5625 -1.421875q0 -0.875 0.5625 -1.4375q0.5625 -0.578125 1.421875 -0.578125q0.875 0 1.421875 0.578125q0.546875 0.5625 0.546875 1.4375q0 0.828125 -0.546875 1.421875q-0.546875 0.59375 -1.421875 0.59375zm10.029602 13.53125q-1.796875 0 -3.25 -0.796875q-1.453125 -0.8125 -2.296875 -2.203125q-0.828125 -1.390625 -0.828125 -3.125q0 -1.71875 0.828125 -3.078125q0.84375 -1.375 2.28125 -2.171875q1.453125 -0.8125 3.265625 -0.8125q1.828125 0 3.265625 0.796875q1.4375 0.78125 2.28125 2.171875q0.84375 1.375 0.84375 3.09375q0 1.734375 -0.84375 3.125q-0.84375 1.390625 -2.28125 2.203125q-1.4375 0.796875 -3.265625 0.796875zm0 -3.34375q0.796875 0 1.390625 -0.34375q0.609375 -0.34375 0.921875 -0.984375q0.328125 -0.640625 0.328125 -1.453125q0 -0.8125 -0.34375 -1.421875q-0.328125 -0.609375 -0.921875 -0.953125q-0.578125 -0.359375 -1.375 -0.359375q-0.765625 0 -1.375 0.359375q-0.59375 0.34375 -0.9375 0.96875q-0.328125 0.625 -0.328125 1.4375q0 0.78125 0.328125 1.421875q0.34375 0.640625 0.9375 0.984375q0.609375 0.34375 1.375 0.34375zm15.917725 3.078125l0 -6.640625q0 -0.921875 -0.5625 -1.484375q-0.5625 -0.5625 -1.421875 -0.5625q-0.609375 0 -1.0625 0.25q-0.453125 0.25 -0.71875 0.71875q-0.265625 0.46875 -0.265625 1.078125l-1.421875 -0.703125q0 -1.375 0.59375 -2.40625q0.609375 -1.03125 1.671875 -1.59375q1.078125 -0.5625 2.421875 -0.5625q1.296875 0 2.28125 0.609375q1.0 0.609375 1.578125 1.625q0.578125 1.015625 0.578125 2.203125l0 7.46875l-3.671875 0zm-7.703125 0l0 -11.65625l3.671875 0l0 11.65625l-3.671875 0z" fill-rule="nonzero"/><path fill="#50fa7b" d="m180.4672 229.40599l0 0c0 -9.76236 7.913971 -17.67633 17.67633 -17.67633l237.30875 0c4.6880493 0 9.184113 1.86232 12.499054 5.1772766c3.314972 3.3149567 5.1772766 7.8110046 5.1772766 12.499054l0 79.32451c0 9.76236 -7.913971 17.67633 -17.67633 17.67633l-237.30875 0l0 0c-9.76236 0 -17.67633 -7.913971 -17.67633 -17.67633z" fill-rule="evenodd"/><path fill="#131732" d="m258.1317 277.94687l6.71875 -16.9375l3.40625 0l6.65625 16.9375l-3.984375 0l-5.09375 -14.0625l1.375 0l-5.171875 14.0625l-3.90625 0zm3.8125 -3.078125l0 -3.0625l9.25 0l0 3.0625l-9.25 0zm22.324066 3.078125l0 -6.640625q0 -0.921875 -0.5625 -1.484375q-0.5625 -0.5625 -1.421875 -0.5625q-0.609375 0 -1.0625 0.25q-0.453125 0.25 -0.71875 0.71875q-0.265625 0.46875 -0.265625 1.078125l-1.421875 -0.703125q0 -1.375 0.59375 -2.40625q0.609375 -1.03125 1.671875 -1.59375q1.078125 -0.5625 2.421875 -0.5625q1.296875 0 2.28125 0.609375q1.0 0.609375 1.578125 1.625q0.578125 1.015625 0.578125 2.203125l0 7.46875l-3.671875 0zm-7.703125 0l0 -11.65625l3.671875 0l0 11.65625l-3.671875 0zm13.727966 0l0 -11.65625l3.671875 0l0 11.65625l-3.671875 0zm1.84375 -13.265625q-0.859375 0 -1.421875 -0.59375q-0.5625 -0.59375 -0.5625 -1.421875q0 -0.875 0.5625 -1.4375q0.5625 -0.578125 1.421875 -0.578125q0.875 0 1.421875 0.578125q0.546875 0.5625 0.546875 1.4375q0 0.828125 -0.546875 1.421875q-0.546875 0.59375 -1.421875 0.59375zm4.420227 13.265625l0 -11.65625l3.671875 0l0 11.65625l-3.671875 0zm7.46875 0l0 -6.8125q0 -0.890625 -0.546875 -1.375q-0.53125 -0.5 -1.328125 -0.5q-0.546875 0 -0.984375 0.234375q-0.4375 0.21875 -0.6875 0.625q-0.25 0.40625 -0.25 1.015625l-1.421875 -0.625q0 -1.390625 0.59375 -2.390625q0.609375 -1.0 1.640625 -1.53125q1.03125 -0.546875 2.328125 -0.546875q1.234375 0 2.203125 0.5625q0.96875 0.546875 1.546875 1.53125q0.578125 0.984375 0.578125 2.34375l0 7.46875l-3.671875 0zm7.453125 0l0 -6.8125q0 -0.890625 -0.546875 -1.375q-0.53125 -0.5 -1.3125 -0.5q-0.5625 0 -1.0 0.234375q-0.421875 0.21875 -0.671875 0.625q-0.25 0.40625 -0.25 1.015625l-2.125 -0.296875q0.0625 -1.484375 0.71875 -2.546875q0.65625 -1.078125 1.75 -1.65625q1.09375 -0.59375 2.453125 -0.59375q1.34375 0 2.390625 0.5625q1.046875 0.5625 1.65625 1.609375q0.609375 1.046875 0.609375 2.515625l0 7.21875l-3.671875 0zm10.90506 0.234375q-1.609375 0 -2.875 -0.78125q-1.25 -0.796875 -1.984375 -2.15625q-0.734375 -1.375 -0.734375 -3.125q0 -1.75 0.734375 -3.109375q0.734375 -1.375 1.984375 -2.171875q1.265625 -0.796875 2.875 -0.796875q1.171875 0 2.109375 0.46875q0.953125 0.453125 1.546875 1.25q0.609375 0.796875 0.6875 1.828125l0 5.046875q-0.078125 1.03125 -0.671875 1.84375q-0.578125 0.796875 -1.546875 1.25q-0.953125 0.453125 -2.125 0.453125zm0.734375 -3.3125q1.1875 0 1.90625 -0.765625q0.71875 -0.78125 0.71875 -1.984375q0 -0.8125 -0.328125 -1.4375q-0.328125 -0.625 -0.921875 -0.96875q-0.578125 -0.359375 -1.34375 -0.359375q-0.765625 0 -1.359375 0.359375q-0.59375 0.34375 -0.9375 0.96875q-0.34375 0.625 -0.34375 1.4375q0 0.78125 0.328125 1.40625q0.34375 0.625 0.9375 0.984375q0.609375 0.359375 1.34375 0.359375zm2.484375 3.078125l0 -3.140625l0.546875 -2.828125l-0.546875 -2.84375l0 -2.84375l3.59375 0l0 11.65625l-3.59375 0zm7.8424377 0l0 -16.484375l3.671875 0l0 16.484375l-3.671875 0zm-2.640625 -8.546875l0 -3.109375l8.953125 0l0 3.109375l-8.953125 0zm15.195343 8.78125q-1.609375 0 -2.875 -0.78125q-1.25 -0.796875 -1.984375 -2.15625q-0.734375 -1.375 -0.734375 -3.125q0 -1.75 0.734375 -3.109375q0.734375 -1.375 1.984375 -2.171875q1.265625 -0.796875 2.875 -0.796875q1.171875 0 2.109375 0.46875q0.953125 0.453125 1.546875 1.25q0.609375 0.796875 0.6875 1.828125l0 5.046875q-0.078125 1.03125 -0.671875 1.84375q-0.578125 0.796875 -1.546875 1.25q-0.953125 0.453125 -2.125 0.453125zm0.734375 -3.3125q1.1875 0 1.90625 -0.765625q0.71875 -0.78125 0.71875 -1.984375q0 -0.8125 -0.328125 -1.4375q-0.328125 -0.625 -0.921875 -0.96875q-0.578125 -0.359375 -1.34375 -0.359375q-0.765625 0 -1.359375 0.359375q-0.59375 0.34375 -0.9375 0.96875q-0.34375 0.625 -0.34375 1.4375q0 0.78125 0.328125 1.40625q0.34375 0.625 0.9375 0.984375q0.609375 0.359375 1.34375 0.359375zm2.484375 3.078125l0 -3.140625l0.546875 -2.828125l-0.546875 -2.84375l0 -2.84375l3.59375 0l0 11.65625l-3.59375 0zm12.904968 0.234375q-1.171875 0 -2.15625 -0.484375q-0.984375 -0.5 -1.609375 -1.328125q-0.625 -0.828125 -0.71875 -1.859375l0 -4.921875q0.09375 -1.03125 0.71875 -1.828125q0.625 -0.796875 1.609375 -1.25q0.984375 -0.46875 2.15625 -0.46875q1.65625 0 2.9375 0.796875q1.28125 0.796875 2.015625 2.171875q0.734375 1.359375 0.734375 3.109375q0 1.75 -0.734375 3.125q-0.734375 1.359375 -2.015625 2.15625q-1.28125 0.78125 -2.9375 0.78125zm-6.71875 -0.234375l0 -17.421875l3.671875 0l0 8.609375l-0.59375 2.84375l0.546875 2.828125l0 3.140625l-3.625 0zm6.078125 -3.078125q0.765625 0 1.34375 -0.359375q0.59375 -0.359375 0.921875 -0.984375q0.34375 -0.625 0.34375 -1.40625q0 -0.8125 -0.34375 -1.4375q-0.328125 -0.625 -0.921875 -0.96875q-0.578125 -0.359375 -1.34375 -0.359375q-0.78125 0 -1.375 0.359375q-0.59375 0.34375 -0.921875 0.96875q-0.328125 0.625 -0.328125 1.4375q0 0.8125 0.328125 1.4375q0.34375 0.625 0.921875 0.96875q0.59375 0.34375 1.375 0.34375zm8.201813 3.078125l0 -17.421875l3.671875 0l0 17.421875l-3.671875 0zm12.029602 0.265625q-1.90625 0 -3.390625 -0.78125q-1.46875 -0.78125 -2.3125 -2.171875q-0.828125 -1.390625 -0.828125 -3.140625q0 -1.75 0.828125 -3.125q0.828125 -1.390625 2.234375 -2.171875q1.421875 -0.796875 3.203125 -0.796875q1.71875 0 3.03125 0.75q1.328125 0.734375 2.078125 2.0625q0.765625 1.3125 0.765625 3.015625q0 0.3125 -0.046875 0.65625q-0.03125 0.34375 -0.125 0.8125l-10.046875 0.015625l0 -2.515625l8.484375 -0.03125l-1.578125 1.0625q-0.015625 -1.015625 -0.3125 -1.671875q-0.28125 -0.65625 -0.859375 -1.0q-0.5625 -0.359375 -1.375 -0.359375q-0.859375 0 -1.5 0.40625q-0.625 0.390625 -0.984375 1.109375q-0.34375 0.71875 -0.34375 1.75q0 1.03125 0.375 1.765625q0.375 0.734375 1.046875 1.140625q0.6875 0.390625 1.625 0.390625q0.859375 0 1.546875 -0.296875q0.703125 -0.3125 1.234375 -0.90625l2.015625 2.015625q-0.859375 1.0 -2.09375 1.515625q-1.21875 0.5 -2.671875 0.5z" fill-rule="nonzero"/><path fill="#50fa7b" d="m493.03412 229.40599l0 0c0 -9.76236 7.913971 -17.67633 17.67633 -17.67633l237.30878 0c4.6880493 0 9.184082 1.86232 12.499023 5.1772766c3.3149414 3.3149567 5.177307 7.8110046 5.177307 12.499054l0 79.32451c0 9.76236 -7.9140015 17.67633 -17.67633 17.67633l-237.30878 0l0 0c-9.76236 0 -17.67633 -7.913971 -17.67633 -17.67633z" fill-rule="evenodd"/><path fill="#131732" d="m576.4085 274.94687l0 -16.703125l3.765625 0l0 16.703125l-3.765625 0zm-5.296875 -13.65625l0 -3.28125l14.375 0l0 3.28125l-14.375 0zm13.820435 13.65625l0 -11.65625l3.671875 0l0 11.65625l-3.671875 0zm3.671875 -6.40625l-1.53125 -1.203125q0.453125 -2.03125 1.53125 -3.15625q1.078125 -1.140625 3.0 -1.140625q0.84375 0 1.46875 0.25q0.640625 0.25 1.125 0.78125l-2.1875 2.765625q-0.234375 -0.265625 -0.59375 -0.40625q-0.359375 -0.140625 -0.828125 -0.140625q-0.90625 0 -1.453125 0.5625q-0.53125 0.5625 -0.53125 1.6875zm11.115112 6.640625q-1.609375 0 -2.875 -0.78125q-1.25 -0.796875 -1.984375 -2.15625q-0.734375 -1.375 -0.734375 -3.125q0 -1.75 0.734375 -3.109375q0.734375 -1.375 1.984375 -2.171875q1.265625 -0.796875 2.875 -0.796875q1.171875 0 2.109375 0.46875q0.953125 0.453125 1.546875 1.25q0.609375 0.796875 0.6875 1.828125l0 5.046875q-0.078125 1.03125 -0.671875 1.84375q-0.578125 0.796875 -1.546875 1.25q-0.953125 0.453125 -2.125 0.453125zm0.734375 -3.3125q1.1875 0 1.90625 -0.765625q0.71875 -0.78125 0.71875 -1.984375q0 -0.8125 -0.328125 -1.4375q-0.328125 -0.625 -0.921875 -0.96875q-0.578125 -0.359375 -1.34375 -0.359375q-0.765625 0 -1.359375 0.359375q-0.59375 0.34375 -0.9375 0.96875q-0.34375 0.625 -0.34375 1.4375q0 0.78125 0.328125 1.40625q0.34375 0.625 0.9375 0.984375q0.609375 0.359375 1.34375 0.359375zm2.484375 3.078125l0 -3.140625l0.546875 -2.828125l-0.546875 -2.84375l0 -2.84375l3.59375 0l0 11.65625l-3.59375 0zm13.889343 0l0 -6.640625q0 -0.921875 -0.5625 -1.484375q-0.5625 -0.5625 -1.421875 -0.5625q-0.609375 0 -1.0625 0.25q-0.453125 0.25 -0.71875 0.71875q-0.265625 0.46875 -0.265625 1.078125l-1.421875 -0.703125q0 -1.375 0.59375 -2.40625q0.609375 -1.03125 1.671875 -1.59375q1.078125 -0.5625 2.421875 -0.5625q1.296875 0 2.28125 0.609375q1.0 0.609375 1.578125 1.625q0.578125 1.015625 0.578125 2.203125l0 7.46875l-3.671875 0zm-7.703125 0l0 -11.65625l3.671875 0l0 11.65625l-3.671875 0zm17.977966 0.28125q-1.03125 0 -2.03125 -0.265625q-1.0 -0.25 -1.859375 -0.734375q-0.84375 -0.5 -1.4375 -1.15625l2.078125 -2.109375q0.578125 0.625 1.375 0.984375q0.796875 0.34375 1.734375 0.34375q0.640625 0 0.984375 -0.1875q0.359375 -0.203125 0.359375 -0.546875q0 -0.421875 -0.421875 -0.640625q-0.421875 -0.234375 -1.078125 -0.40625q-0.640625 -0.1875 -1.359375 -0.40625q-0.71875 -0.21875 -1.375 -0.59375q-0.640625 -0.390625 -1.046875 -1.078125q-0.40625 -0.6875 -0.40625 -1.734375q0 -1.140625 0.5625 -1.96875q0.578125 -0.828125 1.625 -1.296875q1.0625 -0.484375 2.484375 -0.484375q1.484375 0 2.75 0.515625q1.265625 0.515625 2.046875 1.53125l-2.078125 2.109375q-0.5625 -0.65625 -1.25 -0.921875q-0.671875 -0.265625 -1.328125 -0.265625q-0.625 0 -0.9375 0.1875q-0.3125 0.1875 -0.3125 0.515625q0 0.359375 0.40625 0.578125q0.421875 0.21875 1.0625 0.390625q0.65625 0.15625 1.375 0.40625q0.71875 0.234375 1.359375 0.640625q0.65625 0.40625 1.0625 1.09375q0.40625 0.6875 0.40625 1.78125q0 1.703125 -1.28125 2.71875q-1.28125 1.0 -3.46875 1.0zm6.7419434 -0.28125l0 -11.65625l3.671875 0l0 11.65625l-3.671875 0zm1.84375 -13.265625q-0.859375 0 -1.421875 -0.59375q-0.5625 -0.59375 -0.5625 -1.421875q0 -0.875 0.5625 -1.4375q0.5625 -0.578125 1.421875 -0.578125q0.875 0 1.421875 0.578125q0.546875 0.5625 0.546875 1.4375q0 0.828125 -0.546875 1.421875q-0.546875 0.59375 -1.421875 0.59375zm6.076477 13.265625l0 -16.484375l3.671875 0l0 16.484375l-3.671875 0zm-2.640625 -8.546875l0 -3.109375l8.953125 0l0 3.109375l-8.953125 0zm10.560364 8.546875l0 -11.65625l3.671875 0l0 11.65625l-3.671875 0zm1.84375 -13.265625q-0.859375 0 -1.421875 -0.59375q-0.5625 -0.59375 -0.5625 -1.421875q0 -0.875 0.5625 -1.4375q0.5625 -0.578125 1.421875 -0.578125q0.875 0 1.421875 0.578125q0.546875 0.5625 0.546875 1.4375q0 0.828125 -0.546875 1.421875q-0.546875 0.59375 -1.421875 0.59375zm10.029602 13.53125q-1.796875 0 -3.25 -0.796875q-1.453125 -0.8125 -2.296875 -2.203125q-0.828125 -1.390625 -0.828125 -3.125q0 -1.71875 0.828125 -3.078125q0.84375 -1.375 2.28125 -2.171875q1.453125 -0.8125 3.265625 -0.8125q1.828125 0 3.265625 0.796875q1.4375 0.78125 2.28125 2.171875q0.84375 1.375 0.84375 3.09375q0 1.734375 -0.84375 3.125q-0.84375 1.390625 -2.28125 2.203125q-1.4375 0.796875 -3.265625 0.796875zm0 -3.34375q0.796875 0 1.390625 -0.34375q0.609375 -0.34375 0.921875 -0.984375q0.328125 -0.640625 0.328125 -1.453125q0 -0.8125 -0.34375 -1.421875q-0.328125 -0.609375 -0.921875 -0.953125q-0.578125 -0.359375 -1.375 -0.359375q-0.765625 0 -1.375 0.359375q-0.59375 0.34375 -0.9375 0.96875q-0.328125 0.625 -0.328125 1.4375q0 0.78125 0.328125 1.421875q0.34375 0.640625 0.9375 0.984375q0.609375 0.34375 1.375 0.34375zm15.917725 3.078125l0 -6.640625q0 -0.921875 -0.5625 -1.484375q-0.5625 -0.5625 -1.421875 -0.5625q-0.609375 0 -1.0625 0.25q-0.453125 0.25 -0.71875 0.71875q-0.265625 0.46875 -0.265625 1.078125l-1.421875 -0.703125q0 -1.375 0.59375 -2.40625q0.609375 -1.03125 1.671875 -1.59375q1.078125 -0.5625 2.421875 -0.5625q1.296875 0 2.28125 0.609375q1.0 0.609375 1.578125 1.625q0.578125 1.015625 0.578125 2.203125l0 7.46875l-3.671875 0zm-7.703125 0l0 -11.65625l3.671875 0l0 11.65625l-3.671875 0z" fill-rule="nonzero"/><path fill="#f1fa8c" d="m180.4672 78.5556l0 0c0 -9.762375 7.913971 -17.676338 17.67633 -17.676338l237.30875 0c4.6880493 0 9.184113 1.8623238 12.499054 5.1772766c3.314972 3.3149567 5.1772766 7.8110046 5.1772766 12.499062l0 79.32449c0 9.762375 -7.913971 17.67633 -17.67633 17.67633l-237.30875 0l0 0c-9.76236 0 -17.67633 -7.9139557 -17.67633 -17.67633z" fill-rule="evenodd"/><path fill="#131732" d="m225.73616 127.330864q-1.609375 0 -2.875 -0.78125q-1.25 -0.796875 -1.984375 -2.15625q-0.734375 -1.375 -0.734375 -3.125q0 -1.75 0.734375 -3.109375q0.734375 -1.375 1.984375 -2.171875q1.265625 -0.796875 2.875 -0.796875q1.171875 0 2.109375 0.46875q0.953125 0.453125 1.546875 1.25q0.609375 0.796875 0.6875 1.828125l0 5.046875q-0.078125 1.03125 -0.671875 1.84375q-0.578125 0.796875 -1.546875 1.25q-0.953125 0.453125 -2.125 0.453125zm0.734375 -3.3125q1.1875 0 1.90625 -0.765625q0.71875 -0.78125 0.71875 -1.984375q0 -0.8125 -0.328125 -1.4375q-0.328125 -0.625 -0.921875 -0.96875q-0.578125 -0.359375 -1.34375 -0.359375q-0.765625 0 -1.359375 0.359375q-0.59375 0.34375 -0.9375 0.96875q-0.34375 0.625 -0.34375 1.4375q0 0.78125 0.328125 1.40625q0.34375 0.625 0.9375 0.984375q0.609375 0.359375 1.34375 0.359375zm2.484375 3.078125l0 -3.140625l0.546875 -2.828125l-0.546875 -2.84375l0 -2.84375l3.59375 0l0 11.65625l-3.59375 0zm13.889328 0l0 -6.640625q0 -0.921875 -0.5625 -1.484375q-0.5625 -0.5625 -1.421875 -0.5625q-0.609375 0 -1.0625 0.25q-0.453125 0.25 -0.71875 0.71875q-0.265625 0.46875 -0.265625 1.078125l-1.421875 -0.703125q0 -1.375 0.59375 -2.40625q0.609375 -1.03125 1.671875 -1.59375q1.078125 -0.5625 2.421875 -0.5625q1.296875 0 2.28125 0.609375q1.0 0.609375 1.578125 1.625q0.578125 1.015625 0.578125 2.203125l0 7.46875l-3.671875 0zm-7.703125 0l0 -11.65625l3.671875 0l0 11.65625l-3.671875 0zm13.727966 0l0 -11.65625l3.671875 0l0 11.65625l-3.671875 0zm1.84375 -13.265625q-0.859375 0 -1.421875 -0.59375q-0.5625 -0.59375 -0.5625 -1.421875q0 -0.875 0.5625 -1.4375q0.5625 -0.578125 1.421875 -0.578125q0.875 0 1.421875 0.578125q0.546875 0.5625 0.546875 1.4375q0 0.828125 -0.546875 1.421875q-0.546875 0.59375 -1.421875 0.59375zm4.420227 13.265625l0 -11.65625l3.671875 0l0 11.65625l-3.671875 0zm7.46875 0l0 -6.8125q0 -0.890625 -0.546875 -1.375q-0.53125 -0.5 -1.328125 -0.5q-0.546875 0 -0.984375 0.234375q-0.4375 0.21875 -0.6875 0.625q-0.25 0.40625 -0.25 1.015625l-1.421875 -0.625q0 -1.390625 0.59375 -2.390625q0.609375 -1.0 1.640625 -1.53125q1.03125 -0.546875 2.328125 -0.546875q1.234375 0 2.203125 0.5625q0.96875 0.546875 1.546875 1.53125q0.578125 0.984375 0.578125 2.34375l0 7.46875l-3.671875 0zm7.453125 0l0 -6.8125q0 -0.890625 -0.546875 -1.375q-0.53125 -0.5 -1.3125 -0.5q-0.5625 0 -1.0 0.234375q-0.421875 0.21875 -0.671875 0.625q-0.25 0.40625 -0.25 1.015625l-2.125 -0.296875q0.0625 -1.484375 0.71875 -2.546875q0.65625 -1.078125 1.75 -1.65625q1.09375 -0.59375 2.453125 -0.59375q1.34375 0 2.390625 0.5625q1.046875 0.5625 1.65625 1.609375q0.609375 1.046875 0.609375 2.515625l0 7.21875l-3.671875 0zm10.90506 0.234375q-1.609375 0 -2.875 -0.78125q-1.25 -0.796875 -1.984375 -2.15625q-0.734375 -1.375 -0.734375 -3.125q0 -1.75 0.734375 -3.109375q0.734375 -1.375 1.984375 -2.171875q1.265625 -0.796875 2.875 -0.796875q1.171875 0 2.109375 0.46875q0.953125 0.453125 1.546875 1.25q0.609375 0.796875 0.6875 1.828125l0 5.046875q-0.078125 1.03125 -0.671875 1.84375q-0.578125 0.796875 -1.546875 1.25q-0.953125 0.453125 -2.125 0.453125zm0.734375 -3.3125q1.1875 0 1.90625 -0.765625q0.71875 -0.78125 0.71875 -1.984375q0 -0.8125 -0.328125 -1.4375q-0.328125 -0.625 -0.921875 -0.96875q-0.578125 -0.359375 -1.34375 -0.359375q-0.765625 0 -1.359375 0.359375q-0.59375 0.34375 -0.9375 0.96875q-0.34375 0.625 -0.34375 1.4375q0 0.78125 0.328125 1.40625q0.34375 0.625 0.9375 0.984375q0.609375 0.359375 1.34375 0.359375zm2.484375 3.078125l0 -3.140625l0.546875 -2.828125l-0.546875 -2.84375l0 -2.84375l3.59375 0l0 11.65625l-3.59375 0zm7.8424683 0l0 -16.484375l3.671875 0l0 16.484375l-3.671875 0zm-2.640625 -8.546875l0 -3.109375l8.953125 0l0 3.109375l-8.953125 0zm16.085968 8.8125q-1.90625 0 -3.390625 -0.78125q-1.46875 -0.78125 -2.3125 -2.171875q-0.828125 -1.390625 -0.828125 -3.140625q0 -1.75 0.828125 -3.125q0.828125 -1.390625 2.234375 -2.171875q1.421875 -0.796875 3.203125 -0.796875q1.71875 0 3.03125 0.75q1.328125 0.734375 2.078125 2.0625q0.765625 1.3125 0.765625 3.015625q0 0.3125 -0.046875 0.65625q-0.03125 0.34375 -0.125 0.8125l-10.046875 0.015625l0 -2.515625l8.484375 -0.03125l-1.578125 1.0625q-0.015625 -1.015625 -0.3125 -1.671875q-0.28125 -0.65625 -0.859375 -1.0q-0.5625 -0.359375 -1.375 -0.359375q-0.859375 0 -1.5 0.40625q-0.625 0.390625 -0.984375 1.109375q-0.34375 0.71875 -0.34375 1.75q0 1.03125 0.375 1.765625q0.375 0.734375 1.046875 1.140625q0.6875 0.390625 1.625 0.390625q0.859375 0 1.546875 -0.296875q0.703125 -0.3125 1.234375 -0.90625l2.015625 2.015625q-0.859375 1.0 -2.09375 1.515625q-1.21875 0.5 -2.671875 0.5zm11.183197 -7.703125l-0.03125 -3.765625l-2.953125 2.125l-1.34375 -2.609375l3.4375 -1.171875l-2.859375 -2.109375l2.09375 -2.125l2.078125 2.90625l1.15625 -3.46875l2.640625 1.359375l-2.140625 3.0l3.703125 0.03125l-0.484375 2.921875l-3.484375 -1.15625l1.140625 3.578125l-2.953125 0.484375zm7.0256042 7.4375l6.71875 -16.9375l3.40625 0l6.65625 16.9375l-3.984375 0l-5.09375 -14.0625l1.375 0l-5.171875 14.0625l-3.90625 0zm3.8125 -3.078125l0 -3.0625l9.25 0l0 3.0625l-9.25 0zm18.870941 3.359375q-1.03125 0 -2.03125 -0.265625q-1.0 -0.25 -1.859375 -0.734375q-0.84375 -0.5 -1.4375 -1.15625l2.078125 -2.109375q0.578125 0.625 1.375 0.984375q0.796875 0.34375 1.734375 0.34375q0.640625 0 0.984375 -0.1875q0.359375 -0.203125 0.359375 -0.546875q0 -0.421875 -0.421875 -0.640625q-0.421875 -0.234375 -1.078125 -0.40625q-0.640625 -0.1875 -1.359375 -0.40625q-0.71875 -0.21875 -1.375 -0.59375q-0.640625 -0.390625 -1.046875 -1.078125q-0.40625 -0.6875 -0.40625 -1.734375q0 -1.140625 0.5625 -1.96875q0.578125 -0.828125 1.625 -1.296875q1.0625 -0.484375 2.484375 -0.484375q1.484375 0 2.75 0.515625q1.265625 0.515625 2.046875 1.53125l-2.078125 2.109375q-0.5625 -0.65625 -1.25 -0.921875q-0.671875 -0.265625 -1.328125 -0.265625q-0.625 0 -0.9375 0.1875q-0.3125 0.1875 -0.3125 0.515625q0 0.359375 0.40625 0.578125q0.421875 0.21875 1.0625 0.390625q0.65625 0.15625 1.375 0.40625q0.71875 0.234375 1.359375 0.640625q0.65625 0.40625 1.0625 1.09375q0.40625 0.6875 0.40625 1.78125q0 1.703125 -1.28125 2.71875q-1.28125 1.0 -3.46875 1.0zm12.163849 -0.015625q-2.09375 0 -3.59375 -0.6875q-1.5 -0.6875 -2.734375 -2.078125l2.4375 -2.421875q0.8125 0.9375 1.8125 1.453125q1.0 0.515625 2.3125 0.515625q1.203125 0 1.859375 -0.421875q0.671875 -0.4375 0.671875 -1.203125q0 -0.703125 -0.4375 -1.125q-0.4375 -0.4375 -1.140625 -0.75q-0.703125 -0.3125 -1.5625 -0.59375q-0.84375 -0.296875 -1.6875 -0.671875q-0.84375 -0.375 -1.546875 -0.9375q-0.703125 -0.5625 -1.140625 -1.40625q-0.4375 -0.859375 -0.4375 -2.15625q0 -1.5625 0.75 -2.6875q0.765625 -1.125 2.109375 -1.703125q1.34375 -0.59375 3.09375 -0.59375q1.78125 0 3.25 0.625q1.484375 0.625 2.4375 1.703125l-2.4375 2.421875q-0.78125 -0.796875 -1.5625 -1.171875q-0.765625 -0.390625 -1.75 -0.390625q-0.984375 0 -1.5625 0.375q-0.578125 0.375 -0.578125 1.0625q0 0.65625 0.421875 1.046875q0.4375 0.390625 1.140625 0.6875q0.71875 0.28125 1.5625 0.578125q0.859375 0.28125 1.6875 0.671875q0.84375 0.375 1.546875 0.96875q0.71875 0.578125 1.140625 1.484375q0.4375 0.90625 0.4375 2.21875q0 2.421875 -1.734375 3.8125q-1.71875 1.375 -4.765625 1.375zm10.226318 -0.265625l0 -16.484375l3.671875 0l0 16.484375l-3.671875 0zm-2.640625 -8.546875l0 -3.109375l8.953125 0l0 3.109375l-8.953125 0zm15.195343 8.78125q-1.609375 0 -2.875 -0.78125q-1.25 -0.796875 -1.984375 -2.15625q-0.734375 -1.375 -0.734375 -3.125q0 -1.75 0.734375 -3.109375q0.734375 -1.375 1.984375 -2.171875q1.265625 -0.796875 2.875 -0.796875q1.171875 0 2.109375 0.46875q0.953125 0.453125 1.546875 1.25q0.609375 0.796875 0.6875 1.828125l0 5.046875q-0.078125 1.03125 -0.671875 1.84375q-0.578125 0.796875 -1.546875 1.25q-0.953125 0.453125 -2.125 0.453125zm0.734375 -3.3125q1.1875 0 1.90625 -0.765625q0.71875 -0.78125 0.71875 -1.984375q0 -0.8125 -0.328125 -1.4375q-0.328125 -0.625 -0.921875 -0.96875q-0.578125 -0.359375 -1.34375 -0.359375q-0.765625 0 -1.359375 0.359375q-0.59375 0.34375 -0.9375 0.96875q-0.34375 0.625 -0.34375 1.4375q0 0.78125 0.328125 1.40625q0.34375 0.625 0.9375 0.984375q0.609375 0.359375 1.34375 0.359375zm2.484375 3.078125l0 -3.140625l0.546875 -2.828125l-0.546875 -2.84375l0 -2.84375l3.59375 0l0 11.65625l-3.59375 0zm7.8424683 0l0 -16.484375l3.671875 0l0 16.484375l-3.671875 0zm-2.640625 -8.546875l0 -3.109375l8.953125 0l0 3.109375l-8.953125 0zm16.085968 8.8125q-1.90625 0 -3.390625 -0.78125q-1.46875 -0.78125 -2.3125 -2.171875q-0.828125 -1.390625 -0.828125 -3.140625q0 -1.75 0.828125 -3.125q0.828125 -1.390625 2.234375 -2.171875q1.421875 -0.796875 3.203125 -0.796875q1.71875 0 3.03125 0.75q1.328125 0.734375 2.078125 2.0625q0.765625 1.3125 0.765625 3.015625q0 0.3125 -0.046875 0.65625q-0.03125 0.34375 -0.125 0.8125l-10.046875 0.015625l0 -2.515625l8.484375 -0.03125l-1.578125 1.0625q-0.015625 -1.015625 -0.3125 -1.671875q-0.28125 -0.65625 -0.859375 -1.0q-0.5625 -0.359375 -1.375 -0.359375q-0.859375 0 -1.5 0.40625q-0.625 0.390625 -0.984375 1.109375q-0.34375 0.71875 -0.34375 1.75q0 1.03125 0.375 1.765625q0.375 0.734375 1.046875 1.140625q0.6875 0.390625 1.625 0.390625q0.859375 0 1.546875 -0.296875q0.703125 -0.3125 1.234375 -0.90625l2.015625 2.015625q-0.859375 1.0 -2.09375 1.515625q-1.21875 0.5 -2.671875 0.5z" fill-rule="nonzero"/></g></svg>