<svg version="1.1" viewBox="0.0 0.0 960.0 540.0" fill="none" stroke="none" stroke-linecap="square" stroke-miterlimit="10" xmlns:xlink="http://www.w3.org/1999/xlink" xmlns="http://www.w3.org/2000/svg"><clipPath id="g24577cdd49d_0_343.0"><path d="m0 0l960.0 0l0 540.0l-960.0 0l0 -540.0z" clip-rule="nonzero"/></clipPath><g clip-path="url(#g24577cdd49d_0_343.0)"><path fill="#131732" d="m0 0l960.0 0l0 540.0l-960.0 0z" fill-rule="evenodd"/><path fill="#131732" d="m44.015747 176.08522l0 0c0 -26.579926 21.547287 -48.127213 48.127213 -48.127213l782.64325 0c12.764099 0 25.005432 5.070526 34.031067 14.09613c9.025574 9.025604 14.09613 21.266953 14.09613 34.031082l0 250.23375c0 26.579926 -21.547302 48.127228 -48.127197 48.127228l-782.64325 0c-26.579926 0 -48.127213 -21.547302 -48.127213 -48.127228z" fill-rule="evenodd"/><path fill="#50fa7b" d="m146.13124 199.35957l0 0c0 -0.9567108 0.7755585 -1.7322693 1.7322693 -1.7322693l660.7244 0c0.45941162 0 0.9000244 0.18249512 1.2249146 0.50737c0.3248291 0.32485962 0.5073242 0.7654724 0.5073242 1.2248993l0 0l0 0c0 0.9567261 -0.77557373 1.7322845 -1.7322388 1.7322845l-660.7244 0c-0.9567108 0 -1.7322693 -0.7755585 -1.7322693 -1.7322845z" fill-rule="evenodd"/><path fill="#50fa7b" d="m802.617 199.3606l0 0c0 -3.1310577 2.538208 -5.669281 5.6693115 -5.669281l0 0c1.50354 0 2.9455566 0.59729004 4.008789 1.660492c1.0631714 1.0632019 1.6604614 2.5052032 1.6604614 4.008789l0 0c0 3.131073 -2.538208 5.6692963 -5.6692505 5.6692963l0 0c-3.1311035 0 -5.6693115 -2.5382233 -5.6693115 -5.6692963z" fill-rule="evenodd"/><path fill="#50fa7b" d="m800.3963 199.35957l0 0c0 -4.3573914 3.5324097 -7.8897552 7.8897705 -7.8897552l0 0c2.0925293 0 4.099304 0.8312378 5.5789185 2.310852c1.4796143 1.4796295 2.310852 3.4864197 2.310852 5.578903l0 0c0 4.3574066 -3.5323486 7.8897705 -7.8897705 7.8897705l0 0c-4.357361 0 -7.8897705 -3.532364 -7.8897705 -7.8897705z" fill-rule="evenodd"/><path stroke="#a2faa3" stroke-width="1.0" stroke-linejoin="round" stroke-linecap="butt" d="m800.3963 199.35957l0 0c0 -4.3573914 3.5324097 -7.8897552 7.8897705 -7.8897552l0 0c2.0925293 0 4.099304 0.8312378 5.5789185 2.310852c1.4796143 1.4796295 2.310852 3.4864197 2.310852 5.578903l0 0c0 4.3574066 -3.5323486 7.8897705 -7.8897705 7.8897705l0 0c-4.357361 0 -7.8897705 -3.532364 -7.8897705 -7.8897705z" fill-rule="evenodd"/><path fill="#50fa7b" d="m146.13126 199.35966l0 0c0 -2.0699768 1.6992035 -3.7480316 3.7952728 -3.7480316l0 0c1.0065613 0 1.9719086 0.3948822 2.6836548 1.0977783c0.7117615 0.70288086 1.111618 1.6562195 1.111618 2.6502533l0 0c0 2.0699768 -1.6992035 3.7480316 -3.7952728 3.7480316l0 0c-2.0960693 0 -3.7952728 -1.6780548 -3.7952728 -3.7480316z" fill-rule="evenodd"/><path fill="#50fa7b" d="m471.52887 199.35953l0 0c0 -3.131073 2.5382385 -5.6692963 5.669281 -5.6692963l0 0c1.5036011 0 2.9456177 0.5973053 4.008789 1.660492c1.0632019 1.0632019 1.6605225 2.5052185 1.6605225 4.0088043l0 0c0 3.1310577 -2.5382385 5.669281 -5.6693115 5.669281l0 0c-3.1310425 0 -5.669281 -2.5382233 -5.669281 -5.669281z" fill-rule="evenodd"/><path fill="#50fa7b" d="m309.69687 199.35966l0 0c0 -2.0699768 1.6991882 -3.7480316 3.795288 -3.7480316l0 0c1.0065613 0 1.9718933 0.3948822 2.6836548 1.0977783c0.7117615 0.70288086 1.1116028 1.6562195 1.1116028 2.6502533l0 0c0 2.0699768 -1.6991882 3.7480316 -3.7952576 3.7480316l0 0c-2.0960999 0 -3.795288 -1.6780548 -3.795288 -3.7480316z" fill-rule="evenodd"/><path fill="#50fa7b" d="m637.93964 199.35966l0 0c0 -2.0699768 1.6992188 -3.7480316 3.795288 -3.7480316l0 0c1.0065918 0 1.9719238 0.3948822 2.6836548 1.0977783c0.711792 0.70288086 1.1116333 1.6562195 1.1116333 2.6502533l0 0c0 2.0699768 -1.6992188 3.7480316 -3.795288 3.7480316l0 0c-2.0960693 0 -3.795288 -1.6780548 -3.795288 -3.7480316z" fill-rule="evenodd"/><path fill="#50fa7b" d="m226.13126 199.35966l0 0c0 -2.0699768 1.6992035 -3.7480316 3.7952728 -3.7480316l0 0c1.0065613 0 1.9719086 0.3948822 2.6836548 1.0977783c0.7117615 0.70288086 1.111618 1.6562195 1.111618 2.6502533l0 0c0 2.0699768 -1.6992035 3.7480316 -3.7952728 3.7480316l0 0c-2.0960693 0 -3.7952728 -1.6780548 -3.7952728 -3.7480316z" fill-rule="evenodd"/><path fill="#50fa7b" d="m391.48032 199.35966l0 0c0 -2.0699768 1.6992188 -3.7480316 3.795288 -3.7480316l0 0c1.0065613 0 1.9719238 0.3948822 2.6836548 1.0977783c0.7117615 0.70288086 1.1116333 1.6562195 1.1116333 2.6502533l0 0c0 2.0699768 -1.6992188 3.7480316 -3.795288 3.7480316l0 0c-2.0960693 0 -3.795288 -1.6780548 -3.795288 -3.7480316z" fill-rule="evenodd"/><path fill="#50fa7b" d="m555.6011 199.35966l0 0c0 -2.0699768 1.6992188 -3.7480316 3.795288 -3.7480316l0 0c1.0065308 0 1.9718628 0.3948822 2.6836548 1.0977783c0.71173096 0.70288086 1.1115723 1.6562195 1.1115723 2.6502533l0 0c0 2.0699768 -1.6991577 3.7480316 -3.795227 3.7480316l0 0c-2.0960693 0 -3.795288 -1.6780548 -3.795288 -3.7480316z" fill-rule="evenodd"/><path fill="#50fa7b" d="m719.16797 199.35966l0 0c0 -2.0699768 1.6992188 -3.7480316 3.795288 -3.7480316l0 0c1.0065918 0 1.9719238 0.3948822 2.6836548 1.0977783c0.711792 0.70288086 1.1116333 1.6562195 1.1116333 2.6502533l0 0c0 2.0699768 -1.6992188 3.7480316 -3.795288 3.7480316l0 0c-2.0960693 0 -3.795288 -1.6780548 -3.795288 -3.7480316z" fill-rule="evenodd"/><path fill="#50fa7b" d="m186.13126 199.35966l0 0c0 -2.0699768 1.6992035 -3.7480316 3.7952728 -3.7480316l0 0c1.0065613 0 1.9719086 0.3948822 2.6836548 1.0977783c0.7117615 0.70288086 1.111618 1.6562195 1.111618 2.6502533l0 0c0 2.0699768 -1.6992035 3.7480316 -3.7952728 3.7480316l0 0c-2.0960693 0 -3.7952728 -1.6780548 -3.7952728 -3.7480316z" fill-rule="evenodd"/><path fill="#50fa7b" d="m267.9147 199.35966l0 0c0 -2.0699768 1.6992188 -3.7480316 3.795288 -3.7480316l0 0c1.0065613 0 1.9719238 0.3948822 2.6836548 1.0977783c0.7117615 0.70288086 1.1116333 1.6562195 1.1116333 2.6502533l0 0c0 2.0699768 -1.6992188 3.7480316 -3.795288 3.7480316l0 0c-2.0960693 0 -3.795288 -1.6780548 -3.795288 -3.7480316z" fill-rule="evenodd"/><path fill="#50fa7b" d="m350.58926 199.35966l0 0c0 -2.0699768 1.6991882 -3.7480316 3.7952576 -3.7480316l0 0c1.0065918 0 1.9719238 0.3948822 2.6836853 1.0977783c0.71173096 0.70288086 1.1116028 1.6562195 1.1116028 2.6502533l0 0c0 2.0699768 -1.6992188 3.7480316 -3.795288 3.7480316l0 0c-2.0960693 0 -3.7952576 -1.6780548 -3.7952576 -3.7480316z" fill-rule="evenodd"/><path fill="#50fa7b" d="m432.3714 199.35966l0 0c0 -2.0699768 1.6992188 -3.7480316 3.795288 -3.7480316l0 0c1.0065613 0 1.9718933 0.3948822 2.6836548 1.0977783c0.7117615 0.70288086 1.1116028 1.6562195 1.1116028 2.6502533l0 0c0 2.0699768 -1.6991882 3.7480316 -3.7952576 3.7480316l0 0c-2.0960693 0 -3.795288 -1.6780548 -3.795288 -3.7480316z" fill-rule="evenodd"/><path fill="#50fa7b" d="m514.43176 199.35966l0 0c0 -2.0699768 1.6992188 -3.7480316 3.795288 -3.7480316l0 0c1.0065918 0 1.9719238 0.3948822 2.6836548 1.0977783c0.711792 0.70288086 1.1116333 1.6562195 1.1116333 2.6502533l0 0c0 2.0699768 -1.6992188 3.7480316 -3.795288 3.7480316l0 0c-2.0960693 0 -3.795288 -1.6780548 -3.795288 -3.7480316z" fill-rule="evenodd"/><path fill="#50fa7b" d="m596.76904 199.35966l0 0c0 -2.0699768 1.6992188 -3.7480316 3.795288 -3.7480316l0 0c1.0065308 0 1.9719238 0.3948822 2.6836548 1.0977783c0.71173096 0.70288086 1.1116333 1.6562195 1.1116333 2.6502533l0 0c0 2.0699768 -1.6992188 3.7480316 -3.795288 3.7480316l0 0c-2.0960693 0 -3.795288 -1.6780548 -3.795288 -3.7480316z" fill-rule="evenodd"/><path fill="#50fa7b" d="m678.55383 199.35966l0 0c0 -2.0699768 1.6992188 -3.7480316 3.795288 -3.7480316l0 0c1.0065308 0 1.9718628 0.3948822 2.6836548 1.0977783c0.71173096 0.70288086 1.1115723 1.6562195 1.1115723 2.6502533l0 0c0 2.0699768 -1.6991577 3.7480316 -3.795227 3.7480316l0 0c-2.0960693 0 -3.795288 -1.6780548 -3.795288 -3.7480316z" fill-rule="evenodd"/><path fill="#50fa7b" d="m759.78217 199.35966l0 0c0 -2.0699768 1.6992188 -3.7480316 3.795288 -3.7480316l0 0c1.0065308 0 1.9719238 0.3948822 2.6836548 1.0977783c0.71173096 0.70288086 1.1116333 1.6562195 1.1116333 2.6502533l0 0c0 2.0699768 -1.6992188 3.7480316 -3.795288 3.7480316l0 0c-2.0960693 0 -3.795288 -1.6780548 -3.795288 -3.7480316z" fill-rule="evenodd"/><path fill="#000000" fill-opacity="0.0" d="m135.28084 203.1076l29.291336 0l0 35.559067l-29.291336 0z" fill-rule="evenodd"/><path fill="#f5f5f6" d="m148.67146 225.04823q-1.03125 0 -1.890625 -0.59375q-0.859375 -0.59375 -1.375 -1.65625q-0.5 -1.078125 -0.5 -2.53125q0 -1.453125 0.5 -2.515625q0.5 -1.0625 1.34375 -1.640625q0.859375 -0.59375 1.890625 -0.59375q1.046875 0 1.90625 0.59375q0.859375 0.578125 1.34375 1.640625q0.5 1.0625 0.5 2.53125q0 1.453125 -0.5 2.53125q-0.484375 1.0625 -1.34375 1.65625q-0.84375 0.578125 -1.875 0.578125zm-0.015625 -1.1875q0.734375 0 1.28125 -0.40625q0.546875 -0.40625 0.859375 -1.203125q0.328125 -0.8125 0.328125 -1.984375q0 -1.171875 -0.328125 -1.953125q-0.3125 -0.796875 -0.875 -1.203125q-0.546875 -0.40625 -1.28125 -0.40625q-0.71875 0 -1.28125 0.40625q-0.5625 0.40625 -0.875 1.203125q-0.3125 0.78125 -0.3125 1.953125q0 1.171875 0.3125 1.984375q0.3125 0.796875 0.875 1.203125q0.5625 0.40625 1.296875 0.40625z" fill-rule="nonzero"/><path fill="#000000" fill-opacity="0.0" d="m795.4278 203.1076l29.291382 0l0 35.559067l-29.291382 0z" fill-rule="evenodd"/><path fill="#f5f5f6" d="m806.7403 224.90761l0 -9.25l1.234375 0l0 9.25l-1.234375 0zm-1.90625 -8.125l0 -1.125l3.0 0l0 1.125l-3.0 0z" fill-rule="nonzero"/><path fill="#000000" fill-opacity="0.0" d="m426.021 175.3937l104.409424 0" fill-rule="evenodd"/><path stroke="#ffffff" stroke-width="1.0" stroke-linejoin="round" stroke-linecap="butt" d="m426.021 175.3937l98.409424 0" fill-rule="evenodd"/><path fill="#ffffff" stroke="#ffffff" stroke-width="1.0" stroke-linecap="butt" d="m524.4304 177.04544l4.538147 -1.6517334l-4.538147 -1.6517334z" fill-rule="evenodd"/><path fill="#000000" fill-opacity="0.0" d="m441.42258 137.43307l73.60629 0l0 38.771652l-73.60629 0z" fill-rule="evenodd"/><path fill="#f5f5f6" d="m454.39133 161.94933q-1.140625 0 -2.03125 -0.40625q-0.875 -0.40625 -1.484375 -1.1875l1.015625 -1.03125q0.375 0.5625 1.015625 0.890625q0.65625 0.328125 1.453125 0.328125q0.75 0 1.3125 -0.28125q0.578125 -0.296875 0.90625 -0.8125q0.328125 -0.515625 0.328125 -1.234375q0 -0.734375 -0.328125 -1.25q-0.3125 -0.515625 -0.859375 -0.78125q-0.53125 -0.265625 -1.171875 -0.265625q-0.65625 0 -1.1875 0.171875q-0.53125 0.15625 -1.015625 0.53125l0.015625 -0.953125q0.265625 -0.34375 0.609375 -0.546875q0.359375 -0.203125 0.8125 -0.3125q0.453125 -0.125 1.046875 -0.125q1.140625 0 1.9375 0.484375q0.8125 0.484375 1.234375 1.296875q0.421875 0.8125 0.421875 1.828125q0 1.046875 -0.53125 1.890625q-0.515625 0.828125 -1.421875 1.296875q-0.90625 0.46875 -2.078125 0.46875zm-2.046875 -5.328125l-0.8125 -0.8125l0.484375 -5.125l1.375 0l-0.546875 5.265625l-0.5 0.671875zm-0.015625 -4.59375l-0.3125 -1.34375l5.84375 0l0 1.34375l-5.53125 0zm12.031006 9.921875q-1.25 0 -2.28125 -0.703125q-1.03125 -0.703125 -1.640625 -1.984375q-0.609375 -1.296875 -0.609375 -3.03125q0 -1.75 0.59375 -3.03125q0.609375 -1.28125 1.625 -1.96875q1.03125 -0.703125 2.265625 -0.703125q1.265625 0 2.28125 0.703125q1.03125 0.6875 1.625 1.96875q0.609375 1.28125 0.609375 3.046875q0 1.734375 -0.609375 3.03125q-0.59375 1.28125 -1.609375 1.984375q-1.015625 0.6875 -2.25 0.6875zm-0.03125 -1.421875q0.875 0 1.53125 -0.484375q0.671875 -0.484375 1.046875 -1.4375q0.390625 -0.96875 0.390625 -2.375q0 -1.40625 -0.390625 -2.359375q-0.375 -0.953125 -1.046875 -1.4375q-0.671875 -0.5 -1.546875 -0.5q-0.859375 0 -1.53125 0.5q-0.671875 0.484375 -1.0625 1.4375q-0.375 0.953125 -0.375 2.359375q0 1.40625 0.375 2.375q0.390625 0.953125 1.0625 1.4375q0.671875 0.484375 1.546875 0.484375zm10.527283 1.421875q-1.25 0 -2.28125 -0.703125q-1.03125 -0.703125 -1.640625 -1.984375q-0.609375 -1.296875 -0.609375 -3.03125q0 -1.75 0.59375 -3.03125q0.609375 -1.28125 1.625 -1.96875q1.03125 -0.703125 2.265625 -0.703125q1.265625 0 2.28125 0.703125q1.03125 0.6875 1.625 1.96875q0.609375 1.28125 0.609375 3.046875q0 1.734375 -0.609375 3.03125q-0.59375 1.28125 -1.609375 1.984375q-1.015625 0.6875 -2.25 0.6875zm-0.03125 -1.421875q0.875 0 1.53125 -0.484375q0.671875 -0.484375 1.046875 -1.4375q0.390625 -0.96875 0.390625 -2.375q0 -1.40625 -0.390625 -2.359375q-0.375 -0.953125 -1.046875 -1.4375q-0.671875 -0.5 -1.546875 -0.5q-0.859375 0 -1.53125 0.5q-0.671875 0.484375 -1.0625 1.4375q-0.375 0.953125 -0.375 2.359375q0 1.40625 0.375 2.375q0.390625 0.953125 1.0625 1.4375q0.671875 0.484375 1.546875 0.484375zm9.636505 1.265625l0 -7.59375l1.4375 0l0 7.59375l-1.4375 0zm5.125 0l0 -4.59375q0 -0.84375 -0.515625 -1.328125q-0.515625 -0.5 -1.296875 -0.5q-0.53125 0 -0.953125 0.234375q-0.40625 0.21875 -0.671875 0.625q-0.25 0.390625 -0.25 0.953125l-0.59375 -0.28125q0 -0.875 0.375 -1.515625q0.375 -0.640625 1.03125 -1.0q0.65625 -0.359375 1.46875 -0.359375q0.796875 0 1.4375 0.359375q0.65625 0.34375 1.03125 0.984375q0.375 0.640625 0.375 1.53125l0 4.890625l-1.4375 0zm5.140625 0l0 -4.59375q0 -0.84375 -0.53125 -1.328125q-0.515625 -0.5 -1.28125 -0.5q-0.53125 0 -0.953125 0.234375q-0.421875 0.21875 -0.6875 0.625q-0.25 0.390625 -0.25 0.953125l-0.8125 -0.28125q0.046875 -0.890625 0.46875 -1.515625q0.4375 -0.640625 1.109375 -1.0q0.671875 -0.359375 1.46875 -0.359375q0.828125 0 1.484375 0.359375q0.65625 0.34375 1.046875 0.984375q0.390625 0.640625 0.390625 1.546875l0 4.875l-1.453125 0zm5.820648 0.15625q-0.640625 0 -1.203125 -0.15625q-0.5625 -0.171875 -1.046875 -0.484375q-0.484375 -0.3125 -0.828125 -0.75l0.921875 -0.921875q0.421875 0.515625 0.953125 0.765625q0.546875 0.234375 1.21875 0.234375q0.671875 0 1.03125 -0.21875q0.375 -0.234375 0.375 -0.65625q0 -0.421875 -0.296875 -0.640625q-0.296875 -0.234375 -0.765625 -0.390625q-0.453125 -0.15625 -0.96875 -0.296875q-0.515625 -0.15625 -0.984375 -0.390625q-0.46875 -0.25 -0.765625 -0.65625q-0.296875 -0.421875 -0.296875 -1.109375q0 -0.6875 0.328125 -1.1875q0.34375 -0.515625 0.9375 -0.78125q0.609375 -0.28125 1.453125 -0.28125q0.90625 0 1.59375 0.3125q0.703125 0.3125 1.140625 0.9375l-0.921875 0.9375q-0.3125 -0.421875 -0.796875 -0.640625q-0.46875 -0.234375 -1.0625 -0.234375q-0.625 0 -0.953125 0.21875q-0.328125 0.21875 -0.328125 0.609375q0 0.375 0.28125 0.59375q0.296875 0.203125 0.765625 0.34375q0.484375 0.140625 0.984375 0.296875q0.515625 0.15625 0.984375 0.40625q0.46875 0.25 0.75 0.6875q0.296875 0.4375 0.296875 1.140625q0 1.0625 -0.765625 1.6875q-0.75 0.625 -2.03125 0.625z" fill-rule="nonzero"/><path fill="#50fa7b" d="m394.01575 262.51608l0 0c0 -4.340912 3.5190125 -7.859909 7.8599243 -7.859909l150.64233 0c2.0845947 0 4.0838013 0.8280945 5.5578003 2.3021088c1.47406 1.4740295 2.302124 3.473236 2.302124 5.5578003l0 35.272278c0 4.340912 -3.518982 7.8599243 -7.8599243 7.8599243l-150.64233 0c-4.340912 0 -7.8599243 -3.5190125 -7.8599243 -7.8599243z" fill-rule="evenodd"/><path fill="#000000" d="m413.76593 289.67825l0 -17.46875q0 -1.703125 0.734375 -2.96875q0.75 -1.265625 2.046875 -2.0q1.296875 -0.734375 3.015625 -0.734375q1.3125 0 2.265625 0.453125q0.96875 0.453125 1.765625 1.3125l-1.890625 1.859375q-0.40625 -0.453125 -0.921875 -0.6875q-0.515625 -0.25 -1.25 -0.25q-1.375 0 -2.125 0.8125q-0.75 0.796875 -0.75 2.203125l0 17.46875l-2.890625 0zm-3.734375 -12.578125l0 -2.625l11.453125 0l0 2.625l-11.453125 0zm19.299286 16.296875q-1.765625 -1.484375 -3.015625 -3.640625q-1.25 -2.15625 -1.921875 -4.71875q-0.671875 -2.5625 -0.671875 -5.3125q0 -2.75 0.671875 -5.3125q0.671875 -2.5625 1.921875 -4.71875q1.25 -2.15625 3.015625 -3.625l1.65625 1.5q-2.265625 1.984375 -3.5 5.125q-1.234375 3.125 -1.234375 7.03125q0 3.875 1.234375 7.015625q1.234375 3.125 3.5 5.140625l-1.65625 1.515625zm3.6803894 -5.546875l8.1875 -8.640625q1.25 -1.28125 1.953125 -2.21875q0.703125 -0.9375 1.0 -1.734375q0.3125 -0.8125 0.3125 -1.671875q0 -1.703125 -1.09375 -2.65625q-1.078125 -0.96875 -2.8125 -0.96875q-1.703125 0 -2.984375 0.828125q-1.265625 0.8125 -2.265625 2.5l-2.109375 -1.75q1.3125 -2.171875 3.15625 -3.28125q1.859375 -1.109375 4.296875 -1.109375q2.046875 0 3.5625 0.8125q1.53125 0.796875 2.359375 2.234375q0.828125 1.4375 0.828125 3.359375q0 1.375 -0.34375 2.46875q-0.328125 1.078125 -1.171875 2.21875q-0.84375 1.140625 -2.359375 2.703125l-6.625 6.8125l-3.890625 0.09375zm0 1.828125l0 -1.828125l2.546875 -0.859375l12.359375 0l0 2.6875l-14.90625 0zm24.187042 0.3125q-2.28125 0 -4.0625 -0.8125q-1.765625 -0.8125 -2.984375 -2.375l2.046875 -2.046875q0.75 1.109375 2.03125 1.765625q1.296875 0.65625 2.90625 0.65625q1.5 0 2.625 -0.5625q1.140625 -0.578125 1.796875 -1.625q0.65625 -1.046875 0.65625 -2.484375q0 -1.46875 -0.640625 -2.484375q-0.625 -1.03125 -1.703125 -1.5625q-1.078125 -0.53125 -2.359375 -0.53125q-1.3125 0 -2.390625 0.328125q-1.0625 0.3125 -2.015625 1.078125l0.03125 -1.90625q0.546875 -0.671875 1.25 -1.09375q0.703125 -0.421875 1.59375 -0.640625q0.890625 -0.21875 2.078125 -0.21875q2.3125 0 3.90625 0.96875q1.59375 0.953125 2.4375 2.578125q0.859375 1.625 0.859375 3.640625q0 2.125 -1.046875 3.796875q-1.03125 1.65625 -2.859375 2.59375q-1.828125 0.9375 -4.15625 0.9375zm-4.09375 -10.65625l-1.640625 -1.625l1.0 -10.234375l2.75 0l-1.125 10.515625l-0.984375 1.34375zm-0.03125 -9.171875l-0.609375 -2.6875l11.671875 0l0 2.6875l-11.0625 0zm24.062042 19.828125q-2.5 0 -4.5625 -1.40625q-2.0625 -1.40625 -3.28125 -3.96875q-1.21875 -2.578125 -1.21875 -6.078125q0 -3.484375 1.203125 -6.046875q1.203125 -2.5625 3.25 -3.953125q2.046875 -1.390625 4.515625 -1.390625q2.515625 0 4.5625 1.390625q2.0625 1.390625 3.25 3.953125q1.203125 2.5625 1.203125 6.078125q0 3.5 -1.203125 6.078125q-1.1875 2.5625 -3.21875 3.953125q-2.03125 1.390625 -4.5 1.390625zm-0.0625 -2.84375q1.75 0 3.078125 -0.96875q1.328125 -0.984375 2.09375 -2.890625q0.78125 -1.921875 0.78125 -4.75q0 -2.8125 -0.78125 -4.71875q-0.765625 -1.90625 -2.109375 -2.875q-1.34375 -0.984375 -3.09375 -0.984375q-1.734375 0 -3.078125 0.984375q-1.34375 0.96875 -2.09375 2.875q-0.75 1.90625 -0.75 4.71875q0 2.828125 0.75 4.75q0.75 1.90625 2.09375 2.890625q1.34375 0.96875 3.109375 0.96875zm19.257446 2.53125l0 -15.203125l2.875 0l0 15.203125l-2.875 0zm10.28125 0l0 -9.1875q0 -1.6875 -1.046875 -2.65625q-1.046875 -0.984375 -2.609375 -0.984375q-1.046875 0 -1.890625 0.453125q-0.828125 0.4375 -1.34375 1.234375q-0.515625 0.796875 -0.515625 1.921875l-1.171875 -0.578125q0 -1.71875 0.75 -3.0q0.75 -1.28125 2.0625 -2.0q1.3125 -0.71875 2.9375 -0.71875q1.609375 0 2.90625 0.703125q1.296875 0.703125 2.046875 1.984375q0.75 1.28125 0.75 3.03125l0 9.796875l-2.875 0zm10.265625 0l0 -9.1875q0 -1.6875 -1.046875 -2.65625q-1.03125 -0.984375 -2.5625 -0.984375q-1.0625 0 -1.921875 0.453125q-0.84375 0.4375 -1.359375 1.234375q-0.5 0.796875 -0.5 1.921875l-1.640625 -0.578125q0.109375 -1.75 0.953125 -3.015625q0.84375 -1.265625 2.1875 -1.984375q1.34375 -0.71875 2.953125 -0.71875q1.65625 0 2.96875 0.703125q1.3125 0.703125 2.09375 1.984375q0.78125 1.28125 0.78125 3.0625l0 9.765625l-2.90625 0zm11.641296 0.3125q-1.28125 0 -2.421875 -0.328125q-1.125 -0.34375 -2.09375 -0.953125q-0.953125 -0.625 -1.65625 -1.5l1.859375 -1.84375q0.828125 1.015625 1.90625 1.515625q1.09375 0.5 2.4375 0.5q1.34375 0 2.078125 -0.46875q0.75 -0.46875 0.75 -1.296875q0 -0.828125 -0.59375 -1.296875q-0.59375 -0.46875 -1.53125 -0.765625q-0.921875 -0.3125 -1.96875 -0.609375q-1.03125 -0.3125 -1.96875 -0.78125q-0.921875 -0.484375 -1.515625 -1.3125q-0.59375 -0.828125 -0.59375 -2.21875q0 -1.375 0.671875 -2.375q0.671875 -1.015625 1.875 -1.546875q1.203125 -0.546875 2.90625 -0.546875q1.78125 0 3.171875 0.625q1.390625 0.625 2.296875 1.859375l-1.859375 1.859375q-0.640625 -0.828125 -1.59375 -1.265625q-0.9375 -0.453125 -2.125 -0.453125q-1.234375 0 -1.890625 0.4375q-0.65625 0.421875 -0.65625 1.1875q0 0.765625 0.5625 1.1875q0.578125 0.421875 1.515625 0.703125q0.953125 0.28125 1.96875 0.59375q1.03125 0.296875 1.953125 0.8125q0.9375 0.515625 1.53125 1.375q0.59375 0.859375 0.59375 2.28125q0 2.140625 -1.53125 3.390625q-1.515625 1.234375 -4.078125 1.234375zm9.3515625 3.40625l-1.671875 -1.515625q2.28125 -2.015625 3.484375 -5.140625q1.21875 -3.140625 1.21875 -7.015625q0 -3.90625 -1.21875 -7.03125q-1.203125 -3.140625 -3.484375 -5.125l1.671875 -1.5q1.765625 1.46875 3.0 3.625q1.25 2.15625 1.921875 4.71875q0.671875 2.5625 0.671875 5.3125q0 2.75 -0.671875 5.3125q-0.671875 2.5625 -1.921875 4.71875q-1.234375 2.15625 -3.0 3.640625z" fill-rule="nonzero"/><path fill="#50fa7b" d="m474.7089 215.88977l0 0c0 -1.3741913 1.1139832 -2.4881897 2.4881897 -2.4881897l0 0l0 0c0.6598816 0 1.2927856 0.262146 1.7593994 0.728775c0.4666443 0.46661377 0.7287903 1.0995026 0.7287903 1.7594147l0 27.905502c0 1.3741913 -1.1140137 2.4881897 -2.4881897 2.4881897l0 0l0 0c-1.3742065 0 -2.4881897 -1.1139984 -2.4881897 -2.4881897z" fill-rule="evenodd"/><path fill="#000000" fill-opacity="0.0" d="m477.19684 313.6483l-0.47244263 46.141754" fill-rule="evenodd"/><path stroke="#ffffff" stroke-width="1.0" stroke-linejoin="round" stroke-linecap="butt" d="m477.19684 313.6483l-0.41098022 40.14206" fill-rule="evenodd"/><path fill="#ffffff" stroke="#ffffff" stroke-width="1.0" stroke-linecap="butt" d="m475.1342 353.77344l1.6051941 4.5547485l1.6981201 -4.520935z" fill-rule="evenodd"/><path fill="#000000" fill-opacity="0.0" d="m444.4882 359.2126l64.944885 0l0 42.015747l-64.944885 0z" fill-rule="evenodd"/><path fill="#f5f5f6" d="m463.52493 386.3201q-1.453125 0 -2.65625 -0.8125q-1.203125 -0.828125 -1.921875 -2.328125q-0.703125 -1.5 -0.703125 -3.546875q0 -2.03125 0.703125 -3.515625q0.703125 -1.5 1.890625 -2.3125q1.203125 -0.8125 2.625 -0.8125q1.484375 0 2.671875 0.8125q1.203125 0.8125 1.890625 2.3125q0.703125 1.484375 0.703125 3.546875q0 2.03125 -0.703125 3.53125q-0.6875 1.5 -1.875 2.3125q-1.1875 0.8125 -2.625 0.8125zm-0.03125 -1.65625q1.015625 0 1.78125 -0.5625q0.78125 -0.578125 1.234375 -1.6875q0.453125 -1.125 0.453125 -2.78125q0 -1.640625 -0.453125 -2.75q-0.453125 -1.109375 -1.234375 -1.671875q-0.78125 -0.578125 -1.8125 -0.578125q-1.0 0 -1.78125 0.578125q-0.78125 0.5625 -1.21875 1.671875q-0.4375 1.109375 -0.4375 2.75q0 1.65625 0.4375 2.78125q0.4375 1.109375 1.21875 1.6875q0.78125 0.5625 1.8125 0.5625zm8.312653 1.65625q-0.515625 0 -0.859375 -0.359375q-0.34375 -0.375 -0.34375 -0.875q0 -0.515625 0.34375 -0.859375q0.34375 -0.34375 0.859375 -0.34375q0.53125 0 0.875 0.34375q0.34375 0.34375 0.34375 0.859375q0 0.5 -0.34375 0.875q-0.34375 0.359375 -0.875 0.359375zm3.3165588 -1.25l4.78125 -5.03125q0.734375 -0.75 1.140625 -1.296875q0.40625 -0.5625 0.578125 -1.015625q0.1875 -0.46875 0.1875 -0.984375q0 -0.984375 -0.640625 -1.546875q-0.625 -0.5625 -1.640625 -0.5625q-0.984375 0 -1.734375 0.484375q-0.75 0.46875 -1.328125 1.46875l-1.21875 -1.03125q0.765625 -1.265625 1.84375 -1.90625q1.078125 -0.65625 2.5 -0.65625q1.1875 0 2.078125 0.46875q0.890625 0.46875 1.375 1.3125q0.484375 0.84375 0.484375 1.953125q0 0.8125 -0.203125 1.453125q-0.1875 0.625 -0.6875 1.296875q-0.5 0.65625 -1.375 1.5625l-3.859375 3.96875l-2.28125 0.0625zm0 1.0625l0 -1.0625l1.5 -0.5l7.203125 0l0 1.5625l-8.703125 0zm14.108643 0.1875q-1.328125 0 -2.359375 -0.46875q-1.03125 -0.484375 -1.75 -1.390625l1.203125 -1.203125q0.421875 0.65625 1.171875 1.046875q0.765625 0.375 1.703125 0.375q0.875 0 1.53125 -0.328125q0.671875 -0.34375 1.046875 -0.953125q0.390625 -0.609375 0.390625 -1.4375q0 -0.859375 -0.375 -1.453125q-0.375 -0.609375 -1.0 -0.90625q-0.625 -0.3125 -1.375 -0.3125q-0.765625 0 -1.390625 0.1875q-0.625 0.1875 -1.1875 0.625l0.015625 -1.109375q0.328125 -0.390625 0.734375 -0.625q0.40625 -0.25 0.921875 -0.375q0.53125 -0.140625 1.21875 -0.140625q1.34375 0 2.28125 0.5625q0.9375 0.5625 1.421875 1.515625q0.5 0.9375 0.5 2.125q0 1.21875 -0.609375 2.1875q-0.609375 0.96875 -1.671875 1.53125q-1.0625 0.546875 -2.421875 0.546875zm-2.390625 -6.21875l-0.953125 -0.953125l0.578125 -5.96875l1.609375 0l-0.65625 6.140625l-0.578125 0.78125zm-0.015625 -5.34375l-0.359375 -1.578125l6.8125 0l0 1.578125l-6.453125 0z" fill-rule="nonzero"/></g></svg>